<svg version="1.0" xmlns="http://www.w3.org/2000/svg" width="171.000000pt" height="66.000000pt" viewBox="0 0 171.000000 66.000000" preserveAspectRatio="xMidYMid meet">

<g transform="translate(0.000000,66.000000) scale(0.100000,-0.100000)" fill="#ffffff" stroke="none">
<path d="M6 644 c-3 -9 -6 -28 -6 -44 0 -62 -6 -60 205 -60 221 0 225 -1 225 -75 0 -74 -4 -75 -225 -75 -167 0 -194 -2 -199 -16 -9 -24 -7 -347 3 -362 5 -9 25 -12 57 -10 l49 3 3 133 3 132 157 0 c179 0 211 9 247 70 29 50 29 200 0 250 -38 64 -63 70 -301 70 -184 0 -213 -2 -218 -16z"/>
<path d="M606 644 c-3 -9 -6 -28 -6 -44 0 -62 -6 -60 205 -60 221 0 225 -1 225 -75 0 -74 -4 -75 -225 -75 -167 0 -194 -2 -199 -16 -9 -24 -7 -347 3 -362 5 -9 25 -12 57 -10 l49 3 3 133 3 132 157 0 c179 0 211 9 247 70 29 50 29 200 0 250 -38 64 -63 70 -301 70 -184 0 -213 -2 -218 -16z"/>
<path d="M1290 638 c-35 -18 -51 -35 -70 -73 -24 -48 -25 -58 -25 -235 0 -177 1 -187 25 -235 19 -38 35 -55 70 -72 41 -21 57 -23 227 -23 l183 0 6 25 c3 14 3 41 0 60 l-7 35 -168 0 c-230 0 -216 -14 -216 210 0 224 -14 210 215 210 l168 0 7 30 c4 16 4 44 0 60 l-7 30 -182 0 c-169 0 -185 -2 -226 -22z"/>
</g>
</svg>